<?xml version="1.0" encoding="UTF-8" standalone="no"?>
<!DOCTYPE svg PUBLIC "-//W3C//DTD SVG 1.1//EN"
 "http://www.w3.org/Graphics/SVG/1.1/DTD/svg11.dtd">
<!-- Generated by graphviz version 2.47.0 (20210316.0004)
 -->
<!-- Title: dependencies Pages: 1 -->
<svg width="651pt" height="284pt"
 viewBox="0.00 0.00 651.00 284.00" xmlns="http://www.w3.org/2000/svg" xmlns:xlink="http://www.w3.org/1999/xlink">
<g id="graph0" class="graph" transform="scale(1 1) rotate(0) translate(4 280)">
<title>dependencies</title>
<polygon fill="white" stroke="transparent" points="-4,4 -4,-280 647,-280 647,4 -4,4"/>
<text text-anchor="start" x="300.51" y="-42.4" font-family="Times-12" font-weight="bold" font-size="14.00">Legend</text>
<polygon fill="#ffffb3" stroke="transparent" points="87.5,-10 87.5,-30 107.5,-30 107.5,-10 87.5,-10"/>
<text text-anchor="start" x="111.13" y="-15.4" font-family="Times-12" font-size="14.00"> &#160;Declarations</text>
<polygon fill="#8dd3c7" stroke="transparent" points="200.5,-10 200.5,-30 220.5,-30 220.5,-10 200.5,-10"/>
<text text-anchor="start" x="224.23" y="-15.4" font-family="Times-12" font-size="14.00"> &#160;Module</text>
<polygon fill="#80b1d3" stroke="transparent" points="286.5,-10 286.5,-30 306.5,-30 306.5,-10 286.5,-10"/>
<text text-anchor="start" x="310.28" y="-15.4" font-family="Times-12" font-size="14.00"> &#160;Bootstrap</text>
<polygon fill="#fdb462" stroke="transparent" points="383.5,-10 383.5,-30 403.5,-30 403.5,-10 383.5,-10"/>
<text text-anchor="start" x="407.17" y="-15.4" font-family="Times-12" font-size="14.00"> &#160;Providers</text>
<polygon fill="#fb8072" stroke="transparent" points="479.5,-10 479.5,-30 499.5,-30 499.5,-10 479.5,-10"/>
<text text-anchor="start" x="503.23" y="-15.4" font-family="Times-12" font-size="14.00"> &#160;Exports</text>
<g id="clust1" class="cluster">
<title>cluster_AssistanceApplicationsModule</title>
<polygon fill="none" stroke="black" stroke-dasharray="1,5" points="8,-70 8,-268 635,-268 635,-70 8,-70"/>
</g>
<g id="clust3" class="cluster">
<title>cluster_AssistanceApplicationsModule_imports</title>
<polygon fill="none" stroke="black" points="302,-78 302,-130 627,-130 627,-78 302,-78"/>
</g>
<g id="clust4" class="cluster">
<title>cluster_AssistanceApplicationsModule_exports</title>
<polygon fill="none" stroke="black" points="260,-208 260,-260 468,-260 468,-208 260,-208"/>
</g>
<g id="clust6" class="cluster">
<title>cluster_AssistanceApplicationsModule_providers</title>
<polygon fill="none" stroke="black" points="16,-78 16,-130 294,-130 294,-78 16,-78"/>
</g>
<!-- GraduatedAssistancesModule -->
<g id="node1" class="node">
<title>GraduatedAssistancesModule</title>
<polygon fill="#8dd3c7" stroke="black" points="618.66,-122 615.66,-126 594.66,-126 591.66,-122 435.34,-122 435.34,-86 618.66,-86 618.66,-122"/>
<text text-anchor="middle" x="527" y="-99.8" font-family="Times,serif" font-size="14.00">GraduatedAssistancesModule</text>
</g>
<!-- AssistanceApplicationsModule -->
<g id="node3" class="node">
<title>AssistanceApplicationsModule</title>
<polygon fill="#8dd3c7" stroke="black" points="459.46,-187 456.46,-191 435.46,-191 432.46,-187 268.54,-187 268.54,-151 459.46,-151 459.46,-187"/>
<text text-anchor="middle" x="364" y="-164.8" font-family="Times,serif" font-size="14.00">AssistanceApplicationsModule</text>
</g>
<!-- GraduatedAssistancesModule&#45;&gt;AssistanceApplicationsModule -->
<g id="edge1" class="edge">
<title>GraduatedAssistancesModule&#45;&gt;AssistanceApplicationsModule</title>
<path fill="none" stroke="black" d="M447.45,-122.11C447.45,-122.11 447.45,-140.99 447.45,-140.99"/>
<polygon fill="black" stroke="black" points="443.95,-140.99 447.45,-150.99 450.95,-140.99 443.95,-140.99"/>
</g>
<!-- StudentsModule -->
<g id="node2" class="node">
<title>StudentsModule</title>
<polygon fill="#8dd3c7" stroke="black" points="417.77,-122 414.77,-126 393.77,-126 390.77,-122 310.23,-122 310.23,-86 417.77,-86 417.77,-122"/>
<text text-anchor="middle" x="364" y="-99.8" font-family="Times,serif" font-size="14.00">StudentsModule</text>
</g>
<!-- StudentsModule&#45;&gt;AssistanceApplicationsModule -->
<g id="edge2" class="edge">
<title>StudentsModule&#45;&gt;AssistanceApplicationsModule</title>
<path fill="none" stroke="black" d="M364,-122.11C364,-122.11 364,-140.99 364,-140.99"/>
<polygon fill="black" stroke="black" points="360.5,-140.99 364,-150.99 367.5,-140.99 360.5,-140.99"/>
</g>
<!-- AssistanceApplicationsService  -->
<g id="node4" class="node">
<title>AssistanceApplicationsService </title>
<polygon fill="#fb8072" stroke="black" points="460.39,-252 267.61,-252 267.61,-216 460.39,-216 460.39,-252"/>
<text text-anchor="middle" x="364" y="-229.8" font-family="Times,serif" font-size="14.00">AssistanceApplicationsService </text>
</g>
<!-- AssistanceApplicationsModule&#45;&gt;AssistanceApplicationsService  -->
<g id="edge3" class="edge">
<title>AssistanceApplicationsModule&#45;&gt;AssistanceApplicationsService </title>
<path fill="none" stroke="black" stroke-dasharray="5,2" d="M364,-187.11C364,-187.11 364,-205.99 364,-205.99"/>
<polygon fill="black" stroke="black" points="360.5,-205.99 364,-215.99 367.5,-205.99 360.5,-205.99"/>
</g>
<!-- AssistanceApplicationsService -->
<g id="node5" class="node">
<title>AssistanceApplicationsService</title>
<ellipse fill="#fdb462" stroke="black" cx="155" cy="-104" rx="130.77" ry="18"/>
<text text-anchor="middle" x="155" y="-99.8" font-family="Times,serif" font-size="14.00">AssistanceApplicationsService</text>
</g>
<!-- AssistanceApplicationsService&#45;&gt;AssistanceApplicationsModule -->
<g id="edge4" class="edge">
<title>AssistanceApplicationsService&#45;&gt;AssistanceApplicationsModule</title>
<path fill="none" stroke="black" d="M277.08,-110.47C277.08,-110.47 277.08,-140.78 277.08,-140.78"/>
<polygon fill="black" stroke="black" points="273.58,-140.78 277.08,-150.78 280.58,-140.78 273.58,-140.78"/>
</g>
</g>
</svg>
