<?xml version="1.0" encoding="UTF-8" standalone="no"?>
<!DOCTYPE svg PUBLIC "-//W3C//DTD SVG 1.1//EN"
 "http://www.w3.org/Graphics/SVG/1.1/DTD/svg11.dtd">
<!-- Generated by graphviz version 2.47.0 (20210316.0004)
 -->
<!-- Title: dependencies Pages: 1 -->
<svg width="2850pt" height="211pt"
 viewBox="0.00 0.00 2850.00 211.00" xmlns="http://www.w3.org/2000/svg" xmlns:xlink="http://www.w3.org/1999/xlink">
<g id="graph0" class="graph" transform="scale(1 1) rotate(0) translate(4 207)">
<title>dependencies</title>
<polygon fill="white" stroke="transparent" points="-4,4 -4,-207 2846,-207 2846,4 -4,4"/>
<text text-anchor="start" x="1400.01" y="-42.4" font-family="Times-12" font-weight="bold" font-size="14.00">Legend</text>
<polygon fill="#ffffb3" stroke="transparent" points="1187,-10 1187,-30 1207,-30 1207,-10 1187,-10"/>
<text text-anchor="start" x="1210.63" y="-15.4" font-family="Times-12" font-size="14.00"> &#160;Declarations</text>
<polygon fill="#8dd3c7" stroke="transparent" points="1300,-10 1300,-30 1320,-30 1320,-10 1300,-10"/>
<text text-anchor="start" x="1323.73" y="-15.4" font-family="Times-12" font-size="14.00"> &#160;Module</text>
<polygon fill="#80b1d3" stroke="transparent" points="1386,-10 1386,-30 1406,-30 1406,-10 1386,-10"/>
<text text-anchor="start" x="1409.78" y="-15.4" font-family="Times-12" font-size="14.00"> &#160;Bootstrap</text>
<polygon fill="#fdb462" stroke="transparent" points="1483,-10 1483,-30 1503,-30 1503,-10 1483,-10"/>
<text text-anchor="start" x="1506.67" y="-15.4" font-family="Times-12" font-size="14.00"> &#160;Providers</text>
<polygon fill="#fb8072" stroke="transparent" points="1579,-10 1579,-30 1599,-30 1599,-10 1579,-10"/>
<text text-anchor="start" x="1602.73" y="-15.4" font-family="Times-12" font-size="14.00"> &#160;Exports</text>
<g id="clust1" class="cluster">
<title>cluster_SeedModule</title>
<polygon fill="none" stroke="black" stroke-dasharray="1,5" points="8,-70 8,-195 2834,-195 2834,-70 8,-70"/>
</g>
<g id="clust6" class="cluster">
<title>cluster_SeedModule_providers</title>
<polygon fill="none" stroke="black" points="2692,-78 2692,-130 2826,-130 2826,-78 2692,-78"/>
</g>
<g id="clust3" class="cluster">
<title>cluster_SeedModule_imports</title>
<polygon fill="none" stroke="black" points="16,-78 16,-130 2684,-130 2684,-78 16,-78"/>
</g>
<!-- AreasOfInterestModule -->
<g id="node1" class="node">
<title>AreasOfInterestModule</title>
<polygon fill="#8dd3c7" stroke="black" points="2676.43,-122 2673.43,-126 2652.43,-126 2649.43,-122 2527.57,-122 2527.57,-86 2676.43,-86 2676.43,-122"/>
<text text-anchor="middle" x="2602" y="-99.8" font-family="Times,serif" font-size="14.00">AreasOfInterestModule</text>
</g>
<!-- SeedModule -->
<g id="node19" class="node">
<title>SeedModule</title>
<polygon fill="#8dd3c7" stroke="black" points="1393.26,-187 1390.26,-191 1369.26,-191 1366.26,-187 1306.74,-187 1306.74,-151 1393.26,-151 1393.26,-187"/>
<text text-anchor="middle" x="1350" y="-164.8" font-family="Times,serif" font-size="14.00">SeedModule</text>
</g>
<!-- AreasOfInterestModule&#45;&gt;SeedModule -->
<g id="edge1" class="edge">
<title>AreasOfInterestModule&#45;&gt;SeedModule</title>
<path fill="none" stroke="black" d="M2602,-122.01C2602,-144.49 2602,-180 2602,-180 2602,-180 1403.46,-180 1403.46,-180"/>
<polygon fill="black" stroke="black" points="1403.46,-176.5 1393.46,-180 1403.46,-183.5 1403.46,-176.5"/>
</g>
<!-- AssistanceApplicationsModule -->
<g id="node2" class="node">
<title>AssistanceApplicationsModule</title>
<polygon fill="#8dd3c7" stroke="black" points="2509.46,-122 2506.46,-126 2485.46,-126 2482.46,-122 2318.54,-122 2318.54,-86 2509.46,-86 2509.46,-122"/>
<text text-anchor="middle" x="2414" y="-99.8" font-family="Times,serif" font-size="14.00">AssistanceApplicationsModule</text>
</g>
<!-- AssistanceApplicationsModule&#45;&gt;SeedModule -->
<g id="edge2" class="edge">
<title>AssistanceApplicationsModule&#45;&gt;SeedModule</title>
<path fill="none" stroke="black" d="M2414,-122.04C2414,-143.66 2414,-177 2414,-177 2414,-177 1403.36,-177 1403.36,-177"/>
<polygon fill="black" stroke="black" points="1403.36,-173.5 1393.36,-177 1403.36,-180.5 1403.36,-173.5"/>
</g>
<!-- BillboardsModule -->
<g id="node3" class="node">
<title>BillboardsModule</title>
<polygon fill="#8dd3c7" stroke="black" points="2300.88,-122 2297.88,-126 2276.88,-126 2273.88,-122 2183.12,-122 2183.12,-86 2300.88,-86 2300.88,-122"/>
<text text-anchor="middle" x="2242" y="-99.8" font-family="Times,serif" font-size="14.00">BillboardsModule</text>
</g>
<!-- BillboardsModule&#45;&gt;SeedModule -->
<g id="edge3" class="edge">
<title>BillboardsModule&#45;&gt;SeedModule</title>
<path fill="none" stroke="black" d="M2242,-122.13C2242,-142.57 2242,-173 2242,-173 2242,-173 1403.32,-173 1403.32,-173"/>
<polygon fill="black" stroke="black" points="1403.32,-169.5 1393.32,-173 1403.32,-176.5 1403.32,-169.5"/>
</g>
<!-- CoordinatorsModule -->
<g id="node4" class="node">
<title>CoordinatorsModule</title>
<polygon fill="#8dd3c7" stroke="black" points="2165.15,-122 2162.15,-126 2141.15,-126 2138.15,-122 2032.85,-122 2032.85,-86 2165.15,-86 2165.15,-122"/>
<text text-anchor="middle" x="2099" y="-99.8" font-family="Times,serif" font-size="14.00">CoordinatorsModule</text>
</g>
<!-- CoordinatorsModule&#45;&gt;SeedModule -->
<g id="edge4" class="edge">
<title>CoordinatorsModule&#45;&gt;SeedModule</title>
<path fill="none" stroke="black" d="M2099,-122.11C2099,-141.34 2099,-169 2099,-169 2099,-169 1403.51,-169 1403.51,-169"/>
<polygon fill="black" stroke="black" points="1403.51,-165.5 1393.51,-169 1403.51,-172.5 1403.51,-165.5"/>
</g>
<!-- CoursesModule -->
<g id="node5" class="node">
<title>CoursesModule</title>
<polygon fill="#8dd3c7" stroke="black" points="2014.15,-122 2011.15,-126 1990.15,-126 1987.15,-122 1909.85,-122 1909.85,-86 2014.15,-86 2014.15,-122"/>
<text text-anchor="middle" x="1962" y="-99.8" font-family="Times,serif" font-size="14.00">CoursesModule</text>
</g>
<!-- CoursesModule&#45;&gt;SeedModule -->
<g id="edge5" class="edge">
<title>CoursesModule&#45;&gt;SeedModule</title>
<path fill="none" stroke="black" d="M1962,-122.27C1962,-140.56 1962,-166 1962,-166 1962,-166 1403.52,-166 1403.52,-166"/>
<polygon fill="black" stroke="black" points="1403.52,-162.5 1393.52,-166 1403.52,-169.5 1403.52,-162.5"/>
</g>
<!-- GraduatedAssistancesModule -->
<g id="node6" class="node">
<title>GraduatedAssistancesModule</title>
<polygon fill="#8dd3c7" stroke="black" points="1891.66,-122 1888.66,-126 1867.66,-126 1864.66,-122 1708.34,-122 1708.34,-86 1891.66,-86 1891.66,-122"/>
<text text-anchor="middle" x="1800" y="-99.8" font-family="Times,serif" font-size="14.00">GraduatedAssistancesModule</text>
</g>
<!-- GraduatedAssistancesModule&#45;&gt;SeedModule -->
<g id="edge6" class="edge">
<title>GraduatedAssistancesModule&#45;&gt;SeedModule</title>
<path fill="none" stroke="black" d="M1800,-122.03C1800,-139.06 1800,-162 1800,-162 1800,-162 1403.56,-162 1403.56,-162"/>
<polygon fill="black" stroke="black" points="1403.56,-158.5 1393.56,-162 1403.56,-165.5 1403.56,-158.5"/>
</g>
<!-- PeriodsModule -->
<g id="node7" class="node">
<title>PeriodsModule</title>
<polygon fill="#8dd3c7" stroke="black" points="1690.54,-122 1687.54,-126 1666.54,-126 1663.54,-122 1589.46,-122 1589.46,-86 1690.54,-86 1690.54,-122"/>
<text text-anchor="middle" x="1640" y="-99.8" font-family="Times,serif" font-size="14.00">PeriodsModule</text>
</g>
<!-- PeriodsModule&#45;&gt;SeedModule -->
<g id="edge7" class="edge">
<title>PeriodsModule&#45;&gt;SeedModule</title>
<path fill="none" stroke="black" d="M1640,-122.01C1640,-138.05 1640,-159 1640,-159 1640,-159 1403.42,-159 1403.42,-159"/>
<polygon fill="black" stroke="black" points="1403.42,-155.5 1393.42,-159 1403.42,-162.5 1403.42,-155.5"/>
</g>
<!-- ProfessorsModule -->
<g id="node8" class="node">
<title>ProfessorsModule</title>
<polygon fill="#8dd3c7" stroke="black" points="1570.86,-122 1567.86,-126 1546.86,-126 1543.86,-122 1453.14,-122 1453.14,-86 1570.86,-86 1570.86,-122"/>
<text text-anchor="middle" x="1512" y="-99.8" font-family="Times,serif" font-size="14.00">ProfessorsModule</text>
</g>
<!-- ProfessorsModule&#45;&gt;SeedModule -->
<g id="edge8" class="edge">
<title>ProfessorsModule&#45;&gt;SeedModule</title>
<path fill="none" stroke="black" d="M1512,-122.12C1512,-136.78 1512,-155 1512,-155 1512,-155 1403.41,-155 1403.41,-155"/>
<polygon fill="black" stroke="black" points="1403.41,-151.5 1393.41,-155 1403.41,-158.5 1403.41,-151.5"/>
</g>
<!-- ProjectApplicationsModule -->
<g id="node9" class="node">
<title>ProjectApplicationsModule</title>
<polygon fill="#8dd3c7" stroke="black" points="1435.25,-122 1432.25,-126 1411.25,-126 1408.25,-122 1264.75,-122 1264.75,-86 1435.25,-86 1435.25,-122"/>
<text text-anchor="middle" x="1350" y="-99.8" font-family="Times,serif" font-size="14.00">ProjectApplicationsModule</text>
</g>
<!-- ProjectApplicationsModule&#45;&gt;SeedModule -->
<g id="edge9" class="edge">
<title>ProjectApplicationsModule&#45;&gt;SeedModule</title>
<path fill="none" stroke="black" d="M1350,-122.11C1350,-122.11 1350,-140.99 1350,-140.99"/>
<polygon fill="black" stroke="black" points="1346.5,-140.99 1350,-150.99 1353.5,-140.99 1346.5,-140.99"/>
</g>
<!-- ProjectsModule -->
<g id="node10" class="node">
<title>ProjectsModule</title>
<polygon fill="#8dd3c7" stroke="black" points="1246.15,-122 1243.15,-126 1222.15,-126 1219.15,-122 1141.85,-122 1141.85,-86 1246.15,-86 1246.15,-122"/>
<text text-anchor="middle" x="1194" y="-99.8" font-family="Times,serif" font-size="14.00">ProjectsModule</text>
</g>
<!-- ProjectsModule&#45;&gt;SeedModule -->
<g id="edge10" class="edge">
<title>ProjectsModule&#45;&gt;SeedModule</title>
<path fill="none" stroke="black" d="M1194,-122.12C1194,-136.78 1194,-155 1194,-155 1194,-155 1296.55,-155 1296.55,-155"/>
<polygon fill="black" stroke="black" points="1296.55,-158.5 1306.55,-155 1296.55,-151.5 1296.55,-158.5"/>
</g>
<!-- RequirementsModule -->
<g id="node11" class="node">
<title>RequirementsModule</title>
<polygon fill="#8dd3c7" stroke="black" points="1123.81,-122 1120.81,-126 1099.81,-126 1096.81,-122 986.19,-122 986.19,-86 1123.81,-86 1123.81,-122"/>
<text text-anchor="middle" x="1055" y="-99.8" font-family="Times,serif" font-size="14.00">RequirementsModule</text>
</g>
<!-- RequirementsModule&#45;&gt;SeedModule -->
<g id="edge11" class="edge">
<title>RequirementsModule&#45;&gt;SeedModule</title>
<path fill="none" stroke="black" d="M1055,-122.01C1055,-138.05 1055,-159 1055,-159 1055,-159 1296.47,-159 1296.47,-159"/>
<polygon fill="black" stroke="black" points="1296.47,-162.5 1306.47,-159 1296.47,-155.5 1296.47,-162.5"/>
</g>
<!-- SectionsModule -->
<g id="node12" class="node">
<title>SectionsModule</title>
<polygon fill="#8dd3c7" stroke="black" points="968.49,-122 965.49,-126 944.49,-126 941.49,-122 861.51,-122 861.51,-86 968.49,-86 968.49,-122"/>
<text text-anchor="middle" x="915" y="-99.8" font-family="Times,serif" font-size="14.00">SectionsModule</text>
</g>
<!-- SectionsModule&#45;&gt;SeedModule -->
<g id="edge12" class="edge">
<title>SectionsModule&#45;&gt;SeedModule</title>
<path fill="none" stroke="black" d="M915,-122.03C915,-139.06 915,-162 915,-162 915,-162 1296.7,-162 1296.7,-162"/>
<polygon fill="black" stroke="black" points="1296.7,-165.5 1306.7,-162 1296.7,-158.5 1296.7,-165.5"/>
</g>
<!-- StudentsModule -->
<g id="node13" class="node">
<title>StudentsModule</title>
<polygon fill="#8dd3c7" stroke="black" points="843.77,-122 840.77,-126 819.77,-126 816.77,-122 736.23,-122 736.23,-86 843.77,-86 843.77,-122"/>
<text text-anchor="middle" x="790" y="-99.8" font-family="Times,serif" font-size="14.00">StudentsModule</text>
</g>
<!-- StudentsModule&#45;&gt;SeedModule -->
<g id="edge13" class="edge">
<title>StudentsModule&#45;&gt;SeedModule</title>
<path fill="none" stroke="black" d="M790,-122.27C790,-140.56 790,-166 790,-166 790,-166 1296.52,-166 1296.52,-166"/>
<polygon fill="black" stroke="black" points="1296.52,-169.5 1306.52,-166 1296.52,-162.5 1296.52,-169.5"/>
</g>
<!-- TagsModule -->
<g id="node14" class="node">
<title>TagsModule</title>
<polygon fill="#8dd3c7" stroke="black" points="718.26,-122 715.26,-126 694.26,-126 691.26,-122 631.74,-122 631.74,-86 718.26,-86 718.26,-122"/>
<text text-anchor="middle" x="675" y="-99.8" font-family="Times,serif" font-size="14.00">TagsModule</text>
</g>
<!-- TagsModule&#45;&gt;SeedModule -->
<g id="edge14" class="edge">
<title>TagsModule&#45;&gt;SeedModule</title>
<path fill="none" stroke="black" d="M675,-122.11C675,-141.34 675,-169 675,-169 675,-169 1296.49,-169 1296.49,-169"/>
<polygon fill="black" stroke="black" points="1296.49,-172.5 1306.49,-169 1296.49,-165.5 1296.49,-172.5"/>
</g>
<!-- TasksModule -->
<g id="node15" class="node">
<title>TasksModule</title>
<polygon fill="#8dd3c7" stroke="black" points="614.21,-122 611.21,-126 590.21,-126 587.21,-122 521.79,-122 521.79,-86 614.21,-86 614.21,-122"/>
<text text-anchor="middle" x="568" y="-99.8" font-family="Times,serif" font-size="14.00">TasksModule</text>
</g>
<!-- TasksModule&#45;&gt;SeedModule -->
<g id="edge15" class="edge">
<title>TasksModule&#45;&gt;SeedModule</title>
<path fill="none" stroke="black" d="M568,-122.13C568,-142.57 568,-173 568,-173 568,-173 1296.56,-173 1296.56,-173"/>
<polygon fill="black" stroke="black" points="1296.56,-176.5 1306.56,-173 1296.56,-169.5 1296.56,-176.5"/>
</g>
<!-- TeachingAssistancesModule -->
<g id="node16" class="node">
<title>TeachingAssistancesModule</title>
<polygon fill="#8dd3c7" stroke="black" points="503.45,-122 500.45,-126 479.45,-126 476.45,-122 326.55,-122 326.55,-86 503.45,-86 503.45,-122"/>
<text text-anchor="middle" x="415" y="-99.8" font-family="Times,serif" font-size="14.00">TeachingAssistancesModule</text>
</g>
<!-- TeachingAssistancesModule&#45;&gt;SeedModule -->
<g id="edge16" class="edge">
<title>TeachingAssistancesModule&#45;&gt;SeedModule</title>
<path fill="none" stroke="black" d="M415,-122.04C415,-143.66 415,-177 415,-177 415,-177 1296.47,-177 1296.47,-177"/>
<polygon fill="black" stroke="black" points="1296.47,-180.5 1306.47,-177 1296.47,-173.5 1296.47,-180.5"/>
</g>
<!-- ThesesModule -->
<g id="node17" class="node">
<title>ThesesModule</title>
<polygon fill="#8dd3c7" stroke="black" points="308.42,-122 305.42,-126 284.42,-126 281.42,-122 209.58,-122 209.58,-86 308.42,-86 308.42,-122"/>
<text text-anchor="middle" x="259" y="-99.8" font-family="Times,serif" font-size="14.00">ThesesModule</text>
</g>
<!-- ThesesModule&#45;&gt;SeedModule -->
<g id="edge17" class="edge">
<title>ThesesModule&#45;&gt;SeedModule</title>
<path fill="none" stroke="black" d="M259,-122.01C259,-144.49 259,-180 259,-180 259,-180 1296.56,-180 1296.56,-180"/>
<polygon fill="black" stroke="black" points="1296.56,-183.5 1306.56,-180 1296.56,-176.5 1296.56,-183.5"/>
</g>
<!-- ThesisApplicationsModule -->
<g id="node18" class="node">
<title>ThesisApplicationsModule</title>
<polygon fill="#8dd3c7" stroke="black" points="191.64,-122 188.64,-126 167.64,-126 164.64,-122 24.36,-122 24.36,-86 191.64,-86 191.64,-122"/>
<text text-anchor="middle" x="108" y="-99.8" font-family="Times,serif" font-size="14.00">ThesisApplicationsModule</text>
</g>
<!-- ThesisApplicationsModule&#45;&gt;SeedModule -->
<g id="edge18" class="edge">
<title>ThesisApplicationsModule&#45;&gt;SeedModule</title>
<path fill="none" stroke="black" d="M108,-122.15C108,-145.76 108,-184 108,-184 108,-184 1296.52,-184 1296.52,-184"/>
<polygon fill="black" stroke="black" points="1296.52,-187.5 1306.52,-184 1296.52,-180.5 1296.52,-187.5"/>
</g>
<!-- SeedService -->
<g id="node20" class="node">
<title>SeedService</title>
<ellipse fill="#fdb462" stroke="black" cx="2759" cy="-104" rx="58.53" ry="18"/>
<text text-anchor="middle" x="2759" y="-99.8" font-family="Times,serif" font-size="14.00">SeedService</text>
</g>
<!-- SeedService&#45;&gt;SeedModule -->
<g id="edge19" class="edge">
<title>SeedService&#45;&gt;SeedModule</title>
<path fill="none" stroke="black" d="M2759,-122.15C2759,-145.76 2759,-184 2759,-184 2759,-184 1403.32,-184 1403.32,-184"/>
<polygon fill="black" stroke="black" points="1403.33,-180.5 1393.32,-184 1403.32,-187.5 1403.33,-180.5"/>
</g>
</g>
</svg>
