<?xml version="1.0" encoding="UTF-8" standalone="no"?>
<!DOCTYPE svg PUBLIC "-//W3C//DTD SVG 1.1//EN"
 "http://www.w3.org/Graphics/SVG/1.1/DTD/svg11.dtd">
<!-- Generated by graphviz version 2.47.0 (20210316.0004)
 -->
<!-- Title: dependencies Pages: 1 -->
<svg width="724pt" height="284pt"
 viewBox="0.00 0.00 724.00 284.00" xmlns="http://www.w3.org/2000/svg" xmlns:xlink="http://www.w3.org/1999/xlink">
<g id="graph0" class="graph" transform="scale(1 1) rotate(0) translate(4 280)">
<title>dependencies</title>
<polygon fill="white" stroke="transparent" points="-4,4 -4,-280 720,-280 720,4 -4,4"/>
<text text-anchor="start" x="337.01" y="-42.4" font-family="Times-12" font-weight="bold" font-size="14.00">Legend</text>
<polygon fill="#ffffb3" stroke="transparent" points="124,-10 124,-30 144,-30 144,-10 124,-10"/>
<text text-anchor="start" x="147.63" y="-15.4" font-family="Times-12" font-size="14.00"> &#160;Declarations</text>
<polygon fill="#8dd3c7" stroke="transparent" points="237,-10 237,-30 257,-30 257,-10 237,-10"/>
<text text-anchor="start" x="260.73" y="-15.4" font-family="Times-12" font-size="14.00"> &#160;Module</text>
<polygon fill="#80b1d3" stroke="transparent" points="323,-10 323,-30 343,-30 343,-10 323,-10"/>
<text text-anchor="start" x="346.78" y="-15.4" font-family="Times-12" font-size="14.00"> &#160;Bootstrap</text>
<polygon fill="#fdb462" stroke="transparent" points="420,-10 420,-30 440,-30 440,-10 420,-10"/>
<text text-anchor="start" x="443.67" y="-15.4" font-family="Times-12" font-size="14.00"> &#160;Providers</text>
<polygon fill="#fb8072" stroke="transparent" points="516,-10 516,-30 536,-30 536,-10 516,-10"/>
<text text-anchor="start" x="539.73" y="-15.4" font-family="Times-12" font-size="14.00"> &#160;Exports</text>
<g id="clust1" class="cluster">
<title>cluster_GraduatedAssistancesModule</title>
<polygon fill="none" stroke="black" stroke-dasharray="1,5" points="8,-70 8,-268 708,-268 708,-70 8,-70"/>
</g>
<g id="clust6" class="cluster">
<title>cluster_GraduatedAssistancesModule_providers</title>
<polygon fill="none" stroke="black" points="434,-78 434,-130 700,-130 700,-78 434,-78"/>
</g>
<g id="clust4" class="cluster">
<title>cluster_GraduatedAssistancesModule_exports</title>
<polygon fill="none" stroke="black" points="202,-208 202,-260 404,-260 404,-208 202,-208"/>
</g>
<g id="clust3" class="cluster">
<title>cluster_GraduatedAssistancesModule_imports</title>
<polygon fill="none" stroke="black" points="16,-78 16,-130 426,-130 426,-78 16,-78"/>
</g>
<!-- PeriodsModule -->
<g id="node1" class="node">
<title>PeriodsModule</title>
<polygon fill="#8dd3c7" stroke="black" points="417.54,-122 414.54,-126 393.54,-126 390.54,-122 316.46,-122 316.46,-86 417.54,-86 417.54,-122"/>
<text text-anchor="middle" x="367" y="-99.8" font-family="Times,serif" font-size="14.00">PeriodsModule</text>
</g>
<!-- GraduatedAssistancesModule -->
<g id="node4" class="node">
<title>GraduatedAssistancesModule</title>
<polygon fill="#8dd3c7" stroke="black" points="394.66,-187 391.66,-191 370.66,-191 367.66,-187 211.34,-187 211.34,-151 394.66,-151 394.66,-187"/>
<text text-anchor="middle" x="303" y="-164.8" font-family="Times,serif" font-size="14.00">GraduatedAssistancesModule</text>
</g>
<!-- PeriodsModule&#45;&gt;GraduatedAssistancesModule -->
<g id="edge1" class="edge">
<title>PeriodsModule&#45;&gt;GraduatedAssistancesModule</title>
<path fill="none" stroke="black" d="M355.4,-122.11C355.4,-122.11 355.4,-140.99 355.4,-140.99"/>
<polygon fill="black" stroke="black" points="351.9,-140.99 355.4,-150.99 358.9,-140.99 351.9,-140.99"/>
</g>
<!-- ProfessorsModule -->
<g id="node2" class="node">
<title>ProfessorsModule</title>
<polygon fill="#8dd3c7" stroke="black" points="297.86,-122 294.86,-126 273.86,-126 270.86,-122 180.14,-122 180.14,-86 297.86,-86 297.86,-122"/>
<text text-anchor="middle" x="239" y="-99.8" font-family="Times,serif" font-size="14.00">ProfessorsModule</text>
</g>
<!-- ProfessorsModule&#45;&gt;GraduatedAssistancesModule -->
<g id="edge2" class="edge">
<title>ProfessorsModule&#45;&gt;GraduatedAssistancesModule</title>
<path fill="none" stroke="black" d="M254.68,-122.11C254.68,-122.11 254.68,-140.99 254.68,-140.99"/>
<polygon fill="black" stroke="black" points="251.18,-140.99 254.68,-150.99 258.18,-140.99 251.18,-140.99"/>
</g>
<!-- RequirementsModule -->
<g id="node3" class="node">
<title>RequirementsModule</title>
<polygon fill="#8dd3c7" stroke="black" points="161.81,-122 158.81,-126 137.81,-126 134.81,-122 24.19,-122 24.19,-86 161.81,-86 161.81,-122"/>
<text text-anchor="middle" x="93" y="-99.8" font-family="Times,serif" font-size="14.00">RequirementsModule</text>
</g>
<!-- RequirementsModule&#45;&gt;GraduatedAssistancesModule -->
<g id="edge3" class="edge">
<title>RequirementsModule&#45;&gt;GraduatedAssistancesModule</title>
<path fill="none" stroke="black" d="M93,-122.11C93,-141.34 93,-169 93,-169 93,-169 201.2,-169 201.2,-169"/>
<polygon fill="black" stroke="black" points="201.2,-172.5 211.2,-169 201.2,-165.5 201.2,-172.5"/>
</g>
<!-- GraduatedAssistancesService  -->
<g id="node5" class="node">
<title>GraduatedAssistancesService </title>
<polygon fill="#fb8072" stroke="black" points="395.59,-252 210.41,-252 210.41,-216 395.59,-216 395.59,-252"/>
<text text-anchor="middle" x="303" y="-229.8" font-family="Times,serif" font-size="14.00">GraduatedAssistancesService </text>
</g>
<!-- GraduatedAssistancesModule&#45;&gt;GraduatedAssistancesService  -->
<g id="edge4" class="edge">
<title>GraduatedAssistancesModule&#45;&gt;GraduatedAssistancesService </title>
<path fill="none" stroke="black" stroke-dasharray="5,2" d="M303,-187.11C303,-187.11 303,-205.99 303,-205.99"/>
<polygon fill="black" stroke="black" points="299.5,-205.99 303,-215.99 306.5,-205.99 299.5,-205.99"/>
</g>
<!-- GraduatedAssistancesService -->
<g id="node6" class="node">
<title>GraduatedAssistancesService</title>
<ellipse fill="#fdb462" stroke="black" cx="567" cy="-104" rx="125.01" ry="18"/>
<text text-anchor="middle" x="567" y="-99.8" font-family="Times,serif" font-size="14.00">GraduatedAssistancesService</text>
</g>
<!-- GraduatedAssistancesService&#45;&gt;GraduatedAssistancesModule -->
<g id="edge5" class="edge">
<title>GraduatedAssistancesService&#45;&gt;GraduatedAssistancesModule</title>
<path fill="none" stroke="black" d="M567,-122.11C567,-141.34 567,-169 567,-169 567,-169 404.59,-169 404.59,-169"/>
<polygon fill="black" stroke="black" points="404.59,-165.5 394.59,-169 404.59,-172.5 404.59,-165.5"/>
</g>
</g>
</svg>
